<svg fill="#FFFFFF" xmlns="http://www.w3.org/2000/svg"  viewBox="0 0 24 24" width="48px" height="48px"><path d="M 10 2 C 5.5935644 2 2 5.5935677 2 10 C 2 14.406432 5.5935644 18 10 18 C 11.83757 18 13.455411 17.270875 14.808594 16.222656 L 19.867188 21.28125 L 20.574219 21.988281 L 21.988281 20.574219 L 21.28125 19.867188 L 16.222656 14.808594 C 17.270874 13.45541 18 11.837568 18 10 C 18 5.5935677 14.406436 2 10 2 z M 10 4 C 13.325556 4 16 6.674446 16 10 C 16 13.325554 13.325556 16 10 16 C 6.6744439 16 4 13.325554 4 10 C 4 6.674446 6.6744439 4 10 4 z"/></svg>