<svg fill="#FFFFFF" xmlns="http://www.w3.org/2000/svg"  viewBox="0 0 24 24" width="48px" height="48px"><path d="M 10 2 C 5.589 2 2 5.589 2 10 C 2 14.411 5.589 18 10 18 C 11.936 18 13.713609 17.307203 15.099609 16.158203 L 20.912109 21.972656 L 21.972656 20.912109 L 16.158203 15.099609 C 17.307203 13.713609 18 11.936 18 10 C 18 5.589 14.411 2 10 2 z M 10 3.5 C 13.584 3.5 16.5 6.416 16.5 10 C 16.5 13.584 13.584 16.5 10 16.5 C 6.416 16.5 3.5 13.584 3.5 10 C 3.5 6.416 6.416 3.5 10 3.5 z M 10 5 A 5 5 0 0 0 10 15 A 5 5 0 0 0 10 5 z"/></svg>